<?xml version="1.0" encoding="iso-8859-1"?>
<!-- Generator: Adobe Illustrator 19.0.0, SVG Export Plug-In . SVG Version: 6.00 Build 0)  -->
<svg version="1.1" id="Capa_1" xmlns="http://www.w3.org/2000/svg" xmlns:xlink="http://www.w3.org/1999/xlink" x="0px" y="0px"
	 viewBox="0 0 511.999 511.999" style="enable-background:new 0 0 511.999 511.999;" xml:space="preserve">
<g>
	<g>
		<circle cx="97.287" cy="287.609" r="18.623"/>
	</g>
</g>
<g>
	<g>
		<circle cx="97.287" cy="349.566" r="18.623"/>
	</g>
</g>
<g>
	<g>
		<circle cx="97.287" cy="411.532" r="18.623"/>
	</g>
</g>
<g>
	<g>
		<circle cx="187.377" cy="411.532" r="18.623"/>
	</g>
</g>
<g>
	<g>
		<circle cx="300.103" cy="96.279" r="19.482"/>
	</g>
</g>
<g>
	<g>
		<circle cx="244.674" cy="151.719" r="19.482"/>
	</g>
</g>
<g>
	<g>
		<circle cx="189.244" cy="207.149" r="19.482"/>
	</g>
</g>
<g>
	<g>
		<circle cx="189.244" cy="96.279" r="19.482"/>
	</g>
</g>
<g>
	<g>
		<path d="M497.868,289.152L387.007,178.291V62.423c0-26.647-21.679-48.326-48.326-48.326H150.663
			c-26.647,0-48.326,21.679-48.326,48.326v149.531H48.326C21.679,211.954,0,233.632,0,260.278v178.584
			c0,26.646,21.679,48.325,48.326,48.325h188.018c18.987,0,35.445-11.011,43.342-26.979l23.563,23.563
			c9.42,9.42,21.796,14.132,34.17,14.132c12.375,0,24.751-4.712,34.171-14.132l126.279-126.277
			C516.71,338.651,516.71,307.993,497.868,289.152z M132.277,62.423c0.001-10.138,8.249-18.384,18.386-18.384h188.018
			c10.138,0,18.385,8.248,18.385,18.385v87.415c-7.766-5.064-16.831-7.789-26.319-7.789c-12.908,0-25.043,5.027-34.17,14.155
			L193.388,259.392h-42.725c-10.138,0-18.385-8.248-18.385-18.385V62.423z M254.73,438.862
			c-0.001,10.138-8.248,18.385-18.386,18.385H48.326c-10.138,0-18.385-8.248-18.385-18.384V260.278
			c0-10.137,8.248-18.384,18.385-18.384h54.035c0.477,26.238,21.954,47.438,48.303,47.438h13.942
			c-5.495,7.982-8.461,17.421-8.461,27.32c0,12.169,4.471,23.649,12.631,32.571c-0.002,0.117-0.018,0.231-0.018,0.347
			c0,10.286,8.337,18.623,18.623,18.623c0.093,0,0.183-0.012,0.275-0.014l67.074,67.073V438.862z M476.698,336.324L350.419,462.601
			c-7.171,7.168-18.832,7.168-26,0L191.47,329.652c-3.472-3.472-5.385-8.089-5.385-13c0-4.911,1.912-9.528,5.385-13l126.278-126.278
			c3.472-3.472,8.089-5.385,12.999-5.385c4.911,0,9.528,1.912,13,5.385l132.95,132.949
			C483.866,317.491,483.865,329.155,476.698,336.324z"/>
	</g>
</g>
<g>
	<g>
		<circle cx="328.227" cy="256.221" r="20.353"/>
	</g>
</g>
<g>
	<g>
		<circle cx="397.849" cy="325.843" r="20.353"/>
	</g>
</g>
<g>
	<g>
		<circle cx="270.323" cy="314.136" r="20.353"/>
	</g>
</g>
<g>
	<g>
		<circle cx="339.944" cy="383.748" r="20.353"/>
	</g>
</g>
<g>
</g>
<g>
</g>
<g>
</g>
<g>
</g>
<g>
</g>
<g>
</g>
<g>
</g>
<g>
</g>
<g>
</g>
<g>
</g>
<g>
</g>
<g>
</g>
<g>
</g>
<g>
</g>
<g>
</g>
</svg>
