<?xml version="1.0"?>
<svg xmlns="http://www.w3.org/2000/svg" viewBox="0 0 64 64" width="512" height="512"><g id="Outline"><g><path d="M60.866,30.5a1,1,0,1,0-1.732,1l.5.866-6.927,4h0l-4.019,2.32-2.906-4.81,4.358-4.359A8.989,8.989,0,0,0,61.288,17.486a1,1,0,0,0-1.628-.317l-3.468,3.468a1,1,0,1,0,1.414,1.414l2.288-2.287a7,7,0,1,1-5.657-5.658l-4.769,4.769a1,1,0,0,0,0,1.414l4.242,4.243a1,1,0,1,0,1.415-1.414l-3.536-3.536,5.242-5.241a1,1,0,0,0-.317-1.628A8.988,8.988,0,0,0,44.483,23.861L41.52,26.823,39.329,23.2l1.394-.374a1,1,0,0,0,.637-1.409L40.3,19.274l1.554-.416a1,1,0,0,0,.638-1.409l-1.058-2.138,1.554-.417a1,1,0,0,0,.707-1.225l-.732-2.731a1,1,0,1,0-1.932.517l.473,1.766-1.766.473A1,1,0,0,0,39.1,15.1l1.057,2.138-1.554.416a1,1,0,0,0-.637,1.409l1.057,2.139-.775.208L36.28,18.149a4.956,4.956,0,0,0-2.8-2.186l6.7-11.6,3.8,2.191L43.854,8.4a1,1,0,0,0,2,.12L46,6.06a1,1,0,0,0-.5-.926l-5.2-3a1,1,0,0,0-1.367.366L31.263,15.793a4.957,4.957,0,0,0-3.543,2.356l-1.569,2.6L23.505,18.1l.708-.707a1,1,0,0,0,0-1.415l-.977-.976a5.992,5.992,0,0,1,4.069-3.715,1,1,0,0,0,.184-1.859L26.3,8.838a7.913,7.913,0,0,0-8.4.836l-.763-.763a1,1,0,0,0-1.414,0L12.936,11.7a1,1,0,0,0,1.414,1.414l2.085-2.085,5.657,5.656-6.364,6.365L10.071,17.4l1.45-1.451a1,1,0,1,0-1.414-1.414L7.95,16.689a1,1,0,0,0,0,1.415l.707.707L7.243,20.225l-.707-.707a1,1,0,0,0-1.414,0L2.293,22.346a1,1,0,0,0,0,1.414l7.071,7.071a1,1,0,0,0,1.414,0L13.606,28a1,1,0,0,0,0-1.414l-.707-.708,1.415-1.414.707.707a1,1,0,0,0,1.414,0l1.414-1.414L21.89,27.8l-2.052,3.4a1,1,0,0,0,1.712,1.035l7.882-13.046a3,3,0,0,1,5.136,0l21.91,36.264A3,3,0,0,1,53.91,60H46a1,1,0,0,0,0,2h7.91a5,5,0,0,0,4.279-7.586L53.829,47.2a2.79,2.79,0,0,0,.412-.17,3,3,0,1,0-3.453-4.862L49.722,40.4s3.265-1.88,3.984-2.3a1,1,0,0,1,.759-.1.992.992,0,0,1,.607.466l4,6.929a1,1,0,0,1-.367,1.365l-1.646.951a1,1,0,0,0,1,1.732l1.645-.951a3,3,0,0,0,1.1-4.1l-4-6.929a3,3,0,0,0-.657-.775L61.5,33.6a1,1,0,0,0,.366-1.367ZM10.071,28.71,4.414,23.053l1.415-1.414L11.485,27.3Zm1.414-4.243L8.657,21.639l1.414-1.414L12.9,23.053ZM24.614,10.3a8.011,8.011,0,0,0-2.9,3.188L19.329,11.1A5.924,5.924,0,0,1,24.614,10.3ZM19.263,22.346l2.828-2.829,2.995,2.993-2.131,3.527Zm26.126,3.437a8.779,8.779,0,0,0,2.829,2.828l-3.5,3.5-2.131-3.527Zm6.853,17.78a1,1,0,0,1,.758-.1,1,1,0,0,1,.242,1.832.954.954,0,0,1-.493.115l-.879-1.454A.937.937,0,0,1,52.242,43.563Z"/><path d="M35.832,32.051A3.856,3.856,0,0,0,34.788,29.2a3.839,3.839,0,0,0-5.576,0,3.856,3.856,0,0,0-1.044,2.851l.723,13.008a3.114,3.114,0,0,0,6.218,0Zm-2.72,12.9a1.114,1.114,0,0,1-2.224,0l-.723-13.008a1.838,1.838,0,1,1,3.67,0Z"/><path d="M32,50a3,3,0,1,0,3,3A3,3,0,0,0,32,50Zm0,4a1,1,0,1,1,1-1A1,1,0,0,1,32,54Z"/><path d="M42,60H10.09a3,3,0,0,1-2.568-4.551L19.48,35.656a1,1,0,0,0-1.711-1.035l-1.99,3.293-1.35-.78h0l-6.927-4a1,1,0,0,0-1.366.366l-4,6.928A1,1,0,0,0,2.5,41.794l8.107,4.681-4.8,7.939A5,5,0,0,0,10.09,62H42a1,1,0,0,0,0-2ZM4.366,40.562l3-5.2,1.732,1-1.5,2.6a1,1,0,1,0,1.732,1l1.5-2.6,1.732,1-1.5,2.6a1,1,0,1,0,1.732,1l1.5-2.6.451.26-3.1,5.137Z"/></g></g></svg>
